<?xml version="1.0" encoding="utf-8"?>
<!-- Generator: Adobe Illustrator 21.0.0, SVG Export Plug-In . SVG Version: 6.00 Build 0)  -->
<svg version="1.1" id="Layer_1" xmlns="http://www.w3.org/2000/svg" xmlns:xlink="http://www.w3.org/1999/xlink" x="0px" y="0px"
	 viewBox="0 0 300 200" style="enable-background:new 0 0 300 200;" xml:space="preserve">
<style type="text/css">
	.st0{fill:#231F20;}
	.st1{fill:#FFFFFF;}
	.st2{fill:#EE3124;}
</style>
<g>
	<rect x="50" y="97.6" class="st0" width="200" height="59.7"/>
	<path class="st1" d="M132.1,132.7l-1.5-8.7c-0.4-2.5-1-6.4-1.4-9.2h-0.2c-0.4,2.7-1,6.8-1.5,9.2l-1.6,8.7H132.1L132.1,132.7z
		 M125.2,138.4l-1.9,9.7h-7.1l8.9-40.3h8.7l8.1,40.3h-7.1l-1.9-9.7H125.2L125.2,138.4z"/>
	<path class="st1" d="M158,130.1c0-0.5,0-1.2-0.1-1.7c-0.3-2-1.3-3.8-3.1-3.8c-2.9,0-4,4.2-4,9.1c0,5.7,1.5,8.9,3.9,8.9
		c1.1,0,2.3-0.6,3-2.9c0.2-0.5,0.2-1.1,0.2-1.8V130.1L158,130.1z M165.3,106.7v33c0,2.6,0.1,5.8,0.2,8.4h-6.3l-0.4-3.4h-0.2
		c-1.1,2.1-3.4,3.8-6.1,3.8c-6,0-9-6.6-9-15c0-10.2,4.5-15.2,9.3-15.2c2.5,0,4.2,1.2,5,3h0.1v-14.7H165.3L165.3,106.7z"/>
	<path class="st1" d="M180.5,143c2.8,0,3.5-5.2,3.5-9.6c0-4.1-0.7-9.5-3.6-9.5c-3.1,0-3.7,5.4-3.7,9.5
		C176.6,138.4,177.4,143,180.5,143L180.5,143L180.5,143z M180.3,148.6c-6.7,0-10.9-5.4-10.9-15c0-10.5,5.4-15.2,11.1-15.2
		c6.6,0,10.8,5.6,10.8,15C191.3,145.4,184.8,148.6,180.3,148.6L180.3,148.6L180.3,148.6z"/>
	<path class="st1" d="M202.7,137.7c0,0.7,0.1,1.4,0.3,1.9c0.7,2.5,2,3.1,3,3.1c2.8,0,4-3.6,4-9.3c0-5.2-1.2-8.8-4-8.8
		c-1.4,0-2.5,1.5-2.9,3.1c-0.1,0.5-0.3,1.3-0.3,1.8V137.7L202.7,137.7z M195.4,106.7h7.3v15.2h0.1c1.4-2.3,3.4-3.5,6.1-3.5
		c5.5,0,8.3,6.2,8.3,14.4c0,10.3-4.1,15.8-9.5,15.8c-2.5,0-4.2-1.1-5.8-4h-0.2l-0.4,3.5h-6.3c0.1-2.4,0.2-5.7,0.2-8.4V106.7
		L195.4,106.7z"/>
	<path class="st1" d="M234.7,130.7c0-4.1-1.2-7-3.5-7c-2.6,0-3.8,3.9-3.9,7H234.7L234.7,130.7z M227.3,135.8c0.1,5.3,2.9,7,6.3,7
		c2.2,0,4.1-0.5,5.5-1l1,5.2c-1.9,0.8-4.9,1.4-7.8,1.4c-7.8,0-12.1-5.3-12.1-14.4c0-9.8,5-15.6,11.4-15.6c6.3,0,9.7,5.2,9.7,13.7
		c0,1.9-0.1,3-0.2,3.9L227.3,135.8L227.3,135.8z"/>
	<polygon class="st2" points="94,102.8 113.5,102.8 113.5,149.2 94,102.8 	"/>
	<polygon class="st2" points="80.3,102.8 60.8,102.8 60.8,149.2 80.3,102.8 	"/>
	<polygon class="st2" points="87.1,119.9 99.6,149.2 91.4,149.2 87.7,139.9 78.6,139.9 87.1,119.9 	"/>
</g>
</svg>
