<svg id="Layer_1" data-name="Layer 1" xmlns="http://www.w3.org/2000/svg" viewBox="0 0 147.99 183.09"><defs><style>.cls-1{fill:#fff;}</style></defs><title>if</title><path class="cls-1" d="M28.6,113.15c0-9.95,0-11.22-6.88-15.81l-2.29-1.53c-1-1-1-3.83.25-4.59,5.87-2,20.4-8.67,26.27-12.5,1.27,0,2.29.51,2.55,1.53-.51,8.92-1,21.17-1,31.62v45.9c0,18.36.51,20.91,9.69,22.19l5.36.76c1.79,1.28,1.27,5.61-.51,6.38-7.65-.51-15-.76-24-.76-9.18,0-16.83.25-24,.76-1.79-.76-2.29-5.1-.51-6.37l5.35-.76c9.44-1.28,9.69-3.83,9.69-22.19ZM49.77,40.47c0,9.18-6.37,13.26-13.52,13.26A12.53,12.53,0,0,1,23.25,41c0-8.42,6.12-13.77,13.77-13.77S49.77,33.33,49.77,40.47Z" transform="translate(-12.45 -4.01)"/><path class="cls-1" d="M104.85,96.57c-4.33,0-4.33.51-4.33,7.4v53.81c0,18.36.51,21.42,9.69,22.19l9.18.76c1.79,1.28,1.28,5.61-.51,6.38-11.48-.51-18.87-.76-27.8-.76-9.18,0-16.83.25-24.48.76-1.79-.76-2.29-5.1-.51-6.37L72,180c9.43-1.28,9.69-3.83,9.69-22.19V104c0-6.89,0-7.4-5.1-7.4H67.62a3.57,3.57,0,0,1-.77-4.84l11-5.36c2-1,3.83-2.55,3.83-5.1,0-14.79,1.79-30.6,7.91-44.88C95.92,21.86,110.2,4,135.45,4c13.51,0,25,6.12,25,15.3,0,5.1-4.84,9.18-9.69,9.18-2.8,0-4.33-1-6.12-3.06-4.84-5.61-12-11.22-20.4-11.22-7.91,0-14.28,4.85-18.11,14-4.59,11.73-5.61,30.35-5.61,43.1v7.4c0,6.89,0,7.14,4.33,7.14h29.07c2.8,2.55,1,9.69-1.79,10.71Z" transform="translate(-12.45 -4.01)"/></svg>